<svg width="270" height="193" viewBox="0 0 270 193" fill="none" xmlns="http://www.w3.org/2000/svg">
<g clip-path="url(#clip0_21_96)">
<path d="M240.695 19.7022L241.919 25.6488C236.145 28.8618 232.853 35.5486 234.252 42.3448C235.114 46.5317 237.59 49.9752 240.912 52.169C242.957 53.5191 245.344 54.3875 247.891 54.6537L248.279 56.5347C242.498 59.7174 239.206 66.4042 240.605 73.2003C241.467 77.3872 243.943 80.8308 247.259 82.9943C249.31 84.3747 251.697 85.2431 254.238 85.4789L254.626 87.36C248.852 90.573 245.559 97.2598 246.959 104.056C247.821 108.243 250.296 111.686 253.619 113.88C255.664 115.23 258.051 116.099 260.598 116.365L262.441 125.315C263.259 129.29 262.495 133.084 260.671 136.179C260.234 136.965 259.723 137.703 259.17 138.386C258.658 138.966 258.14 139.515 257.556 140.047C253.68 143.438 248.125 144.961 242.502 143.083L230.544 139.094L230.07 138.938L200.944 129.249L200.228 128.985L191.458 126.078L171.102 119.296L170.391 119.062L145.395 110.737C143.944 110.276 142.469 110.011 140.978 109.97C140.784 109.947 140.596 109.954 140.378 109.967C136.724 109.992 133.12 111.335 130.293 113.846L115.634 126.922L115.043 127.423L94.0678 146.132L92.1511 147.855L91.5363 148.392L68.6378 168.794L68.0469 169.295L53.8641 181.924C45.0158 189.819 30.9266 185.129 28.5277 173.479L26.741 164.802C29.4244 163.585 31.6125 161.648 33.1736 159.271C35.3289 155.949 36.2428 151.808 35.3807 147.621C34.5186 143.434 32.0429 139.99 28.7506 137.79C26.3774 136.223 23.6021 135.308 20.6563 135.251L20.3877 133.946C23.0711 132.729 25.2529 130.762 26.814 128.385C28.9756 125.094 29.8895 120.952 29.0274 116.765C28.1653 112.578 25.6896 109.135 22.4036 106.965C20.0303 105.398 17.2488 104.453 14.303 104.395L14.0344 103.09C16.7178 101.874 18.9059 99.9368 20.467 97.5597C22.6223 94.2379 23.5362 90.0965 22.6741 85.9096C21.912 82.2081 19.8807 79.0843 17.1644 76.9237C14.5941 74.8596 11.3442 73.6312 7.95598 73.5698L6.78153 67.8659C4.38264 56.2154 15.4733 46.3416 26.7205 50.0979L47.6176 57.054L48.3281 57.2872L77.4905 67.0008L77.7941 67.0964L78.201 67.234L107.333 76.9537L108.044 77.1869L123.827 82.4444C128.4 83.9697 133.366 83.2636 137.295 80.5886C137.494 80.4843 137.687 80.3497 137.904 80.1785C138.26 79.9154 138.58 79.6283 138.929 79.3349L160.869 59.7949L161.454 59.2634L175.185 47.0432L184.353 38.8619L184.859 38.4098L207.788 18.0021L207.89 17.8862L215.358 11.2566C220.023 7.10179 226.098 6.42028 231.177 8.41063C232.617 8.96808 233.973 9.7325 235.179 10.686C236.007 11.3377 236.793 12.093 237.477 12.9641C239.022 14.7967 240.157 17.093 240.695 19.7022Z" fill="#E3CEB0" stroke="#623B02" stroke-width="2" stroke-miterlimit="10"/>
<path d="M149.873 86.9805L205.219 58.5381" stroke="#623B02" stroke-width="2" stroke-miterlimit="10"/>
<path d="M151.327 98.7938L213.221 92.5013" stroke="#623B02" stroke-width="2" stroke-miterlimit="10"/>
<path d="M116.794 93.7916L54.7141 89.5276" stroke="#623B02" stroke-width="2" stroke-miterlimit="10"/>
<path d="M120.125 105.219L60.7799 123.89" stroke="#623B02" stroke-width="2" stroke-miterlimit="10"/>
</g>
<defs>
<clipPath id="clip0_21_96">
<rect width="245" height="145" fill="white" transform="translate(0.00683594 50.2852) rotate(-11.6348)"/>
</clipPath>
</defs>
</svg>
