<svg width="192" height="29" viewBox="0 0 192 29" fill="none" xmlns="http://www.w3.org/2000/svg">
<path d="M10.0938 22.0811V18.7412H23.1748C24.0098 18.7412 24.6963 19.5762 24.6963 20.4111C24.6963 21.2461 24.0098 22.0811 23.1748 22.0811H10.0938ZM21.3564 9C22.1914 9 22.8779 9.83496 22.8779 10.6699C22.8779 11.5049 22.1914 12.3584 21.3564 12.3584H10.0938V9H21.3564ZM29.1123 15.123C30.8936 13.9912 32.0068 12.1543 32.0068 9.76074C32.0625 5.41895 28.4072 3.0625 24.084 3.08105H0.371094V28.0186H25.9209C30.207 28.0186 33.8809 25.6807 33.8252 21.3203C33.8252 18.1846 31.9326 16.0322 29.1123 15.123ZM60.0986 15.8281C60.1543 19.9287 56.7773 20.6338 52.8066 20.6895C48.8174 20.6338 45.459 19.9287 45.4961 15.8281V3.04395H35.7734V16.4404C35.7363 25.8662 43.4551 28.5752 52.8066 28.5938C62.1582 28.5752 69.877 25.8662 69.8398 16.4404V3.04395H60.0986V15.8281ZM89.9531 2.43164C80.5645 2.4502 72.8828 5.15918 72.9199 14.6035V16.4219C72.8828 25.8477 80.5645 28.5752 89.9531 28.5938C99.3232 28.5752 107.005 25.8477 106.968 16.4219V14.6035C106.968 5.17773 99.3418 2.43164 89.9531 2.43164ZM97.2451 15.8096C97.3008 19.8916 93.9238 20.6338 89.9531 20.6895C85.9639 20.6338 82.5869 19.8916 82.6426 15.8096V15.1973C82.5869 11.1338 85.9639 10.3916 89.9531 10.3359C93.9238 10.3916 97.3008 11.1338 97.2451 15.1973V15.8096ZM134.206 16.2549L123.259 3.04395H109.881V27.9814H119.604V12.748L133 27.9814H143.947V3.04395H134.206V16.2549ZM164.432 2.43164C155.043 2.4502 147.361 5.15918 147.398 14.6035V16.4219C147.361 25.8477 155.043 28.5752 164.432 28.5938C173.802 28.5752 181.483 25.8477 181.446 16.4219V14.6035C181.446 5.17773 173.82 2.43164 164.432 2.43164ZM171.724 15.8096C171.779 19.8916 168.402 20.6338 164.432 20.6895C160.442 20.6338 157.065 19.8916 157.121 15.8096V15.1973C157.065 11.1338 160.442 10.3916 164.432 10.3359C168.402 10.3916 171.779 11.1338 171.724 15.1973V15.8096ZM182.207 0.631836V17.0527H191.93V0.631836H182.207ZM182.207 20.708V28H191.93V20.708H182.207Z" fill="#759312"/>
</svg>
